<svg width="24" height="24" viewBox="0 0 24 24" fill="none" xmlns="http://www.w3.org/2000/svg">
<path fill-rule="evenodd" clip-rule="evenodd" d="M2 12C2 17.5228 6.47715 22 12 22C17.5228 22 22 17.5228 22 12C22 6.47715 17.5228 2 12 2C6.47715 2 2 6.47715 2 12ZM12.7945 18.3542L12.7945 16.3542H10.7945L10.7945 18.3542H12.7945ZM12.02 7.95313C11.0291 7.95313 10.2227 8.7582 10.2227 9.72931V9.93801H8.22266V9.72931C8.22266 7.63393 9.94438 5.95313 12.02 5.95313C14.0724 5.95313 15.775 7.61513 15.775 9.68731C15.775 10.9503 15.1366 12.1277 14.0782 12.8168L12.7911 13.6547V14.436H10.7911V12.5702L12.987 11.1407C13.4785 10.8206 13.775 10.2739 13.775 9.68731C13.775 8.7394 12.9877 7.95313 12.02 7.95313Z" fill="black"/>
</svg>
