<svg width="19" height="21" viewBox="0 0 19 21" fill="none" xmlns="http://www.w3.org/2000/svg">
<path fill-rule="evenodd" clip-rule="evenodd" d="M3 2C2.44772 2 2 2.44772 2 3L2 16C2 16.5523 2.44772 17 3 17H8.20703C8.07217 16.5232 8 16.02 8 15.5C8 12.4624 10.4624 10 13.5 10C14.02 10 14.5232 10.0722 15 10.207V3C15 2.44772 14.5523 2 14 2H3ZM17 11.2572V3C17 1.34315 15.6569 0 14 0H3C1.34315 0 3.33786e-06 1.34315 2.98023e-06 3L0 16C0 17.6569 1.34315 19 3 19H9.25716C10.266 20.2215 11.7921 21 13.5 21C16.5376 21 19 18.5376 19 15.5C19 13.7921 18.2215 12.266 17 11.2572ZM12.828 6.49218L4.17204 6.4922L4.17203 4.3881L12.828 4.38808L12.828 6.49218ZM4.17159 10.4301L9.04715 10.4301L9.04715 8.32598L4.17159 8.32598L4.17159 10.4301ZM13.188 15.5507L15.3055 13.3752L16.4521 14.4911L13.769 17.2478C13.6197 17.4012 13.4152 17.4883 13.2011 17.4898C12.9871 17.4912 12.7814 17.4069 12.63 17.2555L10.8201 15.4456L11.9514 14.3142L13.188 15.5507ZM17 15.5C17 17.433 15.433 19 13.5 19C11.567 19 10 17.433 10 15.5C10 13.567 11.567 12 13.5 12C15.433 12 17 13.567 17 15.5Z" fill="black"/>
</svg>
