<svg width="20" height="22" viewBox="0 0 20 22" fill="none" xmlns="http://www.w3.org/2000/svg">
  <path fill-rule="evenodd" clip-rule="evenodd"
    d="M9.8501 0.851562C4.87953 0.851562 0.850098 4.881 0.850098 9.85156C0.850098 14.8221 4.87953 18.8516 9.8501 18.8516C11.6809 18.8516 13.384 18.3049 14.8052 17.3659L18.2359 21.3083L19.971 19.7984L16.5472 15.8641C17.979 14.2703 18.8501 12.1627 18.8501 9.85156C18.8501 4.881 14.8207 0.851562 9.8501 0.851562ZM3.1501 9.85156C3.1501 6.15125 6.14979 3.15156 9.8501 3.15156C13.5504 3.15156 16.5501 6.15125 16.5501 9.85156C16.5501 13.5519 13.5504 16.5516 9.8501 16.5516C6.14979 16.5516 3.1501 13.5519 3.1501 9.85156Z"
    fill="#00A651" />
</svg>
