<svg width="24" height="24" viewBox="0 0 24 24" fill="none" xmlns="http://www.w3.org/2000/svg">
<path fill-rule="evenodd" clip-rule="evenodd" d="M19.8146 6.33147C19.476 5.95192 19.063 5.646 18.6012 5.43271C18.1401 5.21971 17.6401 5.10362 17.1323 5.09162C16.6208 5.08115 16.1124 5.17347 15.6373 5.36311C15.1628 5.55248 14.7311 5.83503 14.3677 6.19405L12.0394 8.52241L9.9043 6.38956C8.35306 4.83677 5.92098 4.80779 4.54651 6.0485L4.54185 6.05271C4.16214 6.39331 3.85585 6.80774 3.64169 7.27069C3.42754 7.73364 3.31001 8.23539 3.29628 8.74529C3.28256 9.25519 3.37292 9.76254 3.56186 10.2363C3.75081 10.7101 4.03435 11.1405 4.39519 11.501L12.0386 19.1444L19.4819 11.7012C21.0336 10.149 21.0621 7.7165 19.821 6.33857L19.8146 6.33147ZM20.8964 13.1151L13.1237 20.8878C12.8358 21.1752 12.4455 21.3366 12.0386 21.3366C11.6317 21.3366 11.2415 21.1752 10.9535 20.8878L2.98156 12.9158C2.42843 12.3631 1.99376 11.7035 1.70413 10.9772C1.41449 10.2509 1.27596 9.47312 1.29701 8.69148C1.31805 7.90983 1.49821 7.14068 1.8265 6.431C2.15479 5.72132 2.62431 5.08602 3.20638 4.5639C5.43955 2.54805 9.08156 2.73615 11.3192 4.97606L12.0386 5.69472L12.9574 4.77597C13.5119 4.22688 14.1711 3.79486 14.8959 3.50559C15.6207 3.21632 16.3962 3.07571 17.1764 3.09211C17.9589 3.11016 18.7293 3.28884 19.4399 3.61704C20.1504 3.94525 20.786 4.41599 21.307 5.00004C23.3199 7.23471 23.1355 10.8752 20.8964 13.1151Z" fill="black"/>
</svg>
