<svg width="24" height="24" viewBox="0 0 24 24" fill="none" xmlns="http://www.w3.org/2000/svg">
  <path fill-rule="evenodd" clip-rule="evenodd"
    d="M16.4627 1.42322C17.8811 1.25159 19.0168 2.57947 18.6272 3.95402L18.3561 4.91072L20.4967 7.33356H22.7263V14.6285L19.7547 15.6929L18.0027 21.9239H12.1972V18.9786H9.641V21.9239H3.88452L2.54698 17.0173L1.09471 11.3067C0.065881 7.26109 3.12292 3.3293 7.29728 3.3293H12.7197L12.7471 3.2954C13.5646 2.28418 14.7439 1.63122 16.0348 1.47501L16.4627 1.42322ZM16.703 3.40874L16.275 3.46052C15.5005 3.55425 14.7929 3.94603 14.3024 4.55276L13.6747 5.3293H7.29728C4.42741 5.3293 2.32569 8.0324 3.03302 10.8137L4.48107 16.5078L5.4123 19.9239H7.641V16.9786H14.1972V19.9239H16.4875L18.1087 14.1581L20.7263 13.2204V9.33356H19.595L16.1341 5.41636L16.703 3.40874ZM12.9812 9.19519H7.49563V7.19519H12.9812V9.19519ZM16.3395 11.0096C16.977 11.0096 17.4938 10.4928 17.4938 9.85526C17.4938 9.21774 16.977 8.70093 16.3395 8.70093C15.702 8.70093 15.1852 9.21774 15.1852 9.85526C15.1852 10.4928 15.702 11.0096 16.3395 11.0096Z"
    fill="black" />
</svg>
