<svg width="34" height="34" viewBox="0 0 34 34" fill="none" xmlns="http://www.w3.org/2000/svg">
<path d="M27.4849 12.1627L27.4736 12.1349V12.1147C27.3515 11.8973 27.1691 11.7199 26.9485 11.6038C26.6848 11.3667 26.3866 11.1711 26.064 11.0239C25.7787 10.8723 25.4765 10.7547 25.1638 10.6736C24.9064 10.6038 24.6454 10.5835 24.3865 10.5355C24.1075 10.4838 23.8292 10.5228 23.5516 10.5633C23.3348 10.5948 23.1202 10.6323 22.9072 10.6826C22.8449 10.6991 22.7853 10.7244 22.7301 10.7576C22.5921 10.7486 22.4915 10.8604 22.3603 10.8724C22.2672 10.9534 22.1352 10.9541 22.0392 11.0314C21.9807 11.0458 21.9267 11.0747 21.8824 11.1154C21.8712 11.1233 21.8588 11.1294 21.8456 11.1334C21.6483 11.219 21.496 11.3772 21.3062 11.474C21.25 11.4973 21.2177 11.549 21.1667 11.582C21.1346 11.6025 21.1047 11.6261 21.0774 11.6526C21.0679 11.661 21.0579 11.6687 21.0474 11.6758C21.0211 11.6933 20.9982 11.7154 20.9799 11.7411C20.9714 11.7513 20.9618 11.7606 20.9514 11.7688C20.8963 11.8061 20.8459 11.8499 20.8014 11.8994C20.7713 11.9346 20.7391 11.9669 20.7068 11.9999C20.6686 12.0334 20.6423 12.0784 20.6318 12.1282C20.4517 12.3363 20.2822 12.5534 20.1239 12.7786C20.0894 12.8116 20.0819 12.8619 20.0489 12.8979C20.0369 12.9144 20.0219 12.9279 20.0084 12.9437C19.9154 13.1039 19.832 13.2694 19.7586 13.4395C19.7541 13.4523 19.7496 13.465 19.7443 13.4778C19.7233 13.5493 19.6968 13.619 19.6648 13.6864C19.6611 13.6991 19.6558 13.7119 19.6506 13.7246C19.6149 13.797 19.5896 13.874 19.5755 13.9534C19.573 13.9747 19.568 13.9956 19.5605 14.0157C19.5093 14.0963 19.4832 14.1903 19.4855 14.2858C19.4847 14.3171 19.4794 14.3482 19.4698 14.378C19.405 14.511 19.379 14.6594 19.3947 14.8064C19.3827 14.8814 19.3872 14.9512 19.3752 15.0225C19.3434 15.1543 19.33 15.2898 19.3355 15.4253C19.3355 18.1235 19.3355 20.8217 19.3355 23.5199C19.3355 23.9566 19.3565 24.3932 19.3017 24.8283C19.258 24.9839 19.176 25.126 19.0631 25.2416C18.9783 25.337 18.8553 25.3893 18.7278 25.3842C17.586 25.3842 16.4445 25.3842 15.3032 25.3842C15.0533 25.3842 14.8875 25.2244 14.7293 25.0616C14.5327 24.8605 14.4749 24.616 14.4757 24.3347C14.4822 21.3874 14.4822 18.4404 14.4757 15.4936C14.4697 15.0842 14.4194 14.6768 14.3257 14.2783C14.2694 14.0374 14.1972 13.8006 14.1096 13.5693C14.013 13.3107 13.8826 13.066 13.7217 12.8416C13.6605 12.7681 13.6072 12.6884 13.5627 12.6038C13.2153 12.0974 12.7761 11.6605 12.2679 11.3157C12.0248 11.1454 11.754 11.0269 11.4952 10.8859C11.4314 10.8514 11.3451 10.8671 11.2896 10.8056C11.2468 10.7613 11.1891 10.7808 11.1396 10.7711C11.1269 10.7676 11.1147 10.7623 11.1036 10.7553C11.0791 10.7342 11.0508 10.718 11.0203 10.7073L10.9835 10.6893C10.8335 10.7066 10.7074 10.606 10.5649 10.5835C10.5109 10.5516 10.4481 10.5374 10.3856 10.543C10.0233 10.4868 9.65942 10.5235 9.29633 10.5183C9.22109 10.5196 9.14745 10.5403 9.08252 10.5783C9.0512 10.5889 9.01871 10.5957 8.98575 10.5985C8.72918 10.6173 8.50562 10.7366 8.27381 10.8311C8.26308 10.8411 8.25095 10.8494 8.2378 10.8559C8.0047 10.9224 7.78924 11.0397 7.60688 11.1994C7.59565 11.2083 7.58329 11.2156 7.57012 11.2212C7.36607 11.2962 7.20553 11.4463 7.04498 11.5873C6.631 11.958 6.27941 12.3929 6.00371 12.8754C5.97429 12.9273 5.95518 12.9843 5.94745 13.0434C5.94398 13.058 5.93869 13.0722 5.93169 13.0854C5.82717 13.2698 5.7393 13.4631 5.66912 13.6631C5.61511 13.7966 5.60085 13.9429 5.52433 14.0667C5.43806 14.3833 5.4013 14.7096 5.33979 15.0315C5.32597 15.121 5.32219 15.2119 5.32853 15.3023C5.32853 19.2928 5.32853 23.2834 5.32853 27.2739C5.32384 27.337 5.31253 27.3993 5.29477 27.46C5.22501 27.6228 5.14473 27.7796 4.97669 27.8643C4.83048 27.9543 4.66057 27.9983 4.48906 27.9904C3.34926 27.9904 2.20946 27.9904 1.06966 27.9904C0.999253 27.9947 0.928714 27.9842 0.862608 27.9596C0.807897 27.9374 0.758164 27.9045 0.71632 27.8628C0.6413 27.7923 0.593287 27.703 0.521268 27.6318C0.515267 27.6145 0.509265 27.598 0.503264 27.5808C0.432138 27.4359 0.39958 27.2752 0.408739 27.1141C0.408739 23.2131 0.408739 19.3098 0.408739 15.4043C0.408739 15.1792 0.408739 14.9542 0.423743 14.7291C0.423743 14.6834 0.423743 14.6369 0.423743 14.5911C0.454501 14.3743 0.522019 14.162 0.512266 13.9392C0.512437 13.9229 0.51369 13.9066 0.516017 13.8904C0.567176 13.785 0.595307 13.6699 0.598539 13.5528C0.60379 13.5138 0.598539 13.4778 0.607541 13.4358C0.658595 13.3407 0.687569 13.2353 0.692313 13.1275C0.723049 12.9574 0.767199 12.7901 0.824348 12.6271C0.85189 12.5579 0.869324 12.4851 0.876112 12.411C0.877869 12.396 0.882451 12.3815 0.889615 12.3683C0.978889 12.2445 0.987891 12.0869 1.06066 11.9564C1.10168 11.8917 1.13041 11.82 1.14543 11.7448C1.14924 11.7317 1.15479 11.719 1.16194 11.7073C1.21251 11.664 1.2402 11.5998 1.23696 11.5333C1.24031 11.5204 1.24535 11.5081 1.25196 11.4965C1.29843 11.4509 1.32534 11.3891 1.32698 11.324C1.32992 11.3112 1.33446 11.2989 1.34048 11.2872C1.36449 11.2497 1.40875 11.225 1.411 11.1739C1.54604 10.8446 1.74409 10.5498 1.91739 10.2414C1.96065 10.1885 1.99977 10.1323 2.03442 10.0734C2.04007 10.0606 2.04685 10.0483 2.05467 10.0366C2.12421 9.95134 2.18222 9.85726 2.22722 9.75682C2.23406 9.74486 2.24295 9.7342 2.25347 9.72531C2.32494 9.66518 2.37712 9.58534 2.40351 9.49575C2.43492 9.44908 2.47112 9.40584 2.51154 9.36672C2.59425 9.30463 2.66536 9.22845 2.7216 9.14166C2.80591 9.02551 2.89949 8.91637 3.00142 8.81532C3.20553 8.57507 3.42856 8.35155 3.66835 8.1469C3.72585 8.09862 3.77635 8.04256 3.81839 7.98035C3.82623 7.96913 3.83557 7.95903 3.84614 7.95034C3.92116 7.90083 3.98943 7.83331 4.06445 7.7793C4.07471 7.77134 4.08549 7.76408 4.09671 7.75754C4.12909 7.73747 4.15948 7.71436 4.18748 7.68853C4.19747 7.68055 4.208 7.67329 4.21899 7.66677C4.25725 7.65026 4.27151 7.61125 4.29851 7.5835C4.53107 7.36969 4.80264 7.21215 5.06596 7.04336C5.12073 7.01635 5.16949 6.97884 5.22426 6.95108C5.27902 6.92332 5.32403 6.88731 5.3743 6.86031C5.42456 6.8333 5.46132 6.80479 5.50708 6.78004C5.51823 6.77383 5.52976 6.76832 5.54159 6.76353C5.57084 6.75157 5.59776 6.73456 5.62111 6.71327C5.64857 6.6952 5.67802 6.68034 5.70888 6.66901C5.74839 6.65516 5.78483 6.63376 5.81616 6.60599C6.06988 6.46243 6.33572 6.34143 6.61062 6.2444C6.77341 6.18888 6.93246 6.11986 7.09525 6.0636C7.1754 6.06595 7.25371 6.03932 7.31581 5.98858C7.34396 5.97807 7.37357 5.972 7.40358 5.97057C7.4852 5.97362 7.56517 5.94696 7.62864 5.89555C7.78768 5.88205 7.92872 5.78002 8.09151 5.78903C8.20704 5.79578 8.30607 5.73426 8.41409 5.71401C8.48086 5.71401 8.54613 5.696 8.61365 5.699C8.8102 5.70575 8.99475 5.62848 9.18905 5.61873C9.2416 5.61005 9.29484 5.60628 9.34809 5.60748C9.67062 5.57517 9.99557 5.57517 10.3181 5.60748C10.3796 5.60748 10.4411 5.60748 10.5026 5.60748C10.528 5.6083 10.5531 5.61182 10.5777 5.61798C10.7585 5.63674 10.9363 5.67199 11.1163 5.693C11.1814 5.69063 11.2465 5.69516 11.3106 5.7065C11.4089 5.72376 11.4929 5.79428 11.5979 5.78527C11.6595 5.78389 11.721 5.78815 11.7817 5.79803C11.7966 5.8006 11.811 5.8054 11.8245 5.81228C11.8995 5.8873 11.9933 5.87905 12.0863 5.88205C12.1084 5.88416 12.1299 5.89 12.1501 5.8993C12.2251 5.97432 12.3196 5.97057 12.4141 5.97432C12.4362 5.97634 12.4577 5.98191 12.4779 5.99083C12.5442 6.04674 12.6301 6.07377 12.7165 6.06585C12.7375 6.06866 12.758 6.07473 12.7772 6.08385C12.8208 6.1371 12.888 6.16521 12.9565 6.15887C12.9767 6.16089 12.9963 6.16675 13.0143 6.17613C13.0564 6.22534 13.1169 6.25516 13.1816 6.25865C13.1945 6.26283 13.2069 6.26863 13.2184 6.2759C13.2806 6.35092 13.3684 6.33367 13.4502 6.35092C13.4626 6.35553 13.4743 6.36211 13.4847 6.37043C13.5224 6.41476 13.5766 6.44184 13.6347 6.44545C13.6467 6.45037 13.6579 6.45721 13.6677 6.4657C13.7022 6.51897 13.7608 6.52347 13.8178 6.53547C13.8299 6.54005 13.8412 6.54637 13.8515 6.55423C13.8929 6.59368 13.9452 6.61981 14.0016 6.62925C14.0136 6.63473 14.0248 6.64207 14.0346 6.651C14.0706 6.70952 14.1374 6.70277 14.1914 6.72602C14.2039 6.73236 14.2156 6.74045 14.2259 6.75003C14.4787 6.92332 14.751 7.06511 15.0121 7.2219C15.1216 7.28717 15.2019 7.4087 15.3467 7.41245C15.3916 7.43182 15.4314 7.46135 15.4629 7.49873C15.5057 7.59925 15.5965 7.63676 15.688 7.67052C15.7705 7.73579 15.8553 7.7988 15.9371 7.86482C16.2289 8.1469 16.5372 8.41322 16.8118 8.71254C16.9761 8.9286 17.1479 9.13866 17.3264 9.34346C17.3504 9.40198 17.4157 9.43198 17.43 9.4935C17.4519 9.58529 17.5049 9.66666 17.58 9.72381C17.5907 9.73246 17.5998 9.74286 17.607 9.75457C17.6164 9.7771 17.6274 9.79892 17.64 9.81984C17.7488 9.98338 17.7683 9.98413 17.8928 9.82434C17.9145 9.79617 17.9397 9.77095 17.9679 9.74932C18.1434 9.59928 18.1412 9.59928 18.0309 9.39522C17.8883 9.13416 17.7518 8.87009 17.6108 8.60827C17.5514 8.50876 17.4985 8.40552 17.4525 8.29919C17.6197 8.09123 17.8175 7.90987 18.0391 7.76129C18.0809 7.74666 18.1178 7.72068 18.1457 7.68627C18.1556 7.67835 18.1664 7.67156 18.1779 7.66602C18.2122 7.65064 18.2422 7.62692 18.2649 7.597C18.2747 7.58864 18.2856 7.58158 18.2972 7.576C18.3362 7.56399 18.3535 7.52573 18.3835 7.50098C18.394 7.49351 18.4053 7.48722 18.4172 7.48222C18.4588 7.4669 18.4965 7.44256 18.5275 7.41095C18.5377 7.40246 18.5485 7.39469 18.5598 7.3877C18.643 7.34193 18.7098 7.27667 18.7931 7.2264C18.8043 7.2189 18.8163 7.21215 18.8283 7.2054C18.9356 7.13038 19.0669 7.09362 19.1382 6.97434C19.4829 6.76761 19.8385 6.57954 20.2034 6.41094C20.2308 6.39712 20.2561 6.37943 20.2785 6.35843C20.2904 6.34953 20.3035 6.34245 20.3175 6.33742C20.5503 6.26278 20.7779 6.17256 20.9987 6.06735C21.292 5.95482 21.5988 5.87905 21.8989 5.78978C22.0335 5.79193 22.1667 5.76292 22.2882 5.705C22.304 5.70148 22.3201 5.69947 22.3363 5.699C22.5021 5.70725 22.6558 5.64274 22.8164 5.61873C22.8585 5.6082 22.9021 5.6044 22.9454 5.60748C23.265 5.60073 23.5801 5.53246 23.9019 5.53846C24.0565 5.53826 24.2108 5.55106 24.3633 5.57672C24.4422 5.58893 24.522 5.59495 24.6019 5.59472C24.989 5.59472 25.3633 5.68625 25.7422 5.75452C25.9285 5.78773 26.1128 5.8313 26.2943 5.88505C26.5449 5.96007 26.8059 6.00958 27.0445 6.12886C27.0634 6.13553 27.0831 6.13981 27.103 6.14162C27.3626 6.23164 27.6139 6.34267 27.8637 6.45745C28.4306 6.72028 28.9717 7.03575 29.4796 7.3997C30.1355 7.87062 30.7351 8.41534 31.2666 9.02313C31.2827 9.04242 31.2967 9.06328 31.3086 9.08539C31.3293 9.12953 31.3614 9.16734 31.4016 9.19492C31.6672 9.51188 31.9128 9.84512 32.1368 10.1927C32.71 11.0772 33.1324 12.0506 33.3867 13.0734C33.4911 13.5346 33.5683 14.0016 33.6177 14.4718C33.6665 14.9647 33.6507 15.4561 33.6507 15.9474C33.6542 19.6749 33.6542 23.4024 33.6507 27.1299C33.6591 27.2857 33.6262 27.4409 33.5555 27.58C33.506 27.6955 33.4222 27.7929 33.3154 27.8591C33.1747 27.9558 33.0082 28.008 32.8375 28.0091C31.6737 28.0091 30.5102 28.0091 29.3469 28.0091C29.1949 28.0096 29.0519 27.9373 28.962 27.8148C28.8702 27.6971 28.7945 27.5677 28.7369 27.43C28.7211 27.3104 28.7145 27.1897 28.7174 27.0691C28.7174 23.2821 28.7174 19.4949 28.7174 15.7074C28.7119 15.3228 28.6826 14.939 28.6297 14.5581C28.5855 14.2632 28.5079 13.9743 28.3986 13.6969C28.2232 13.2228 27.9793 12.7769 27.6747 12.3735C27.6171 12.2983 27.5537 12.2278 27.4849 12.1627Z" fill="white"/>
</svg>
