<svg width="24" height="25" viewBox="0 0 24 25" fill="none" xmlns="http://www.w3.org/2000/svg">
<path d="M18.0007 9.18637C17.6407 8.77637 17.2707 8.36637 16.8807 7.97637L16.5907 7.70637L16.7307 7.58637C17.2197 7.16658 17.5682 6.60688 17.7291 5.98281C17.8901 5.35873 17.8557 4.7003 17.6307 4.09637C17.3046 3.41534 16.7882 2.8433 16.1441 2.44935C15.4999 2.0554 14.7555 1.85639 14.0007 1.87637V3.87637C14.3565 3.87142 14.7071 3.96148 15.0165 4.13726C15.3259 4.31305 15.5828 4.56819 15.7607 4.87637C15.9307 5.27637 15.7607 5.71637 15.2907 6.18637C15.2207 6.26637 15.1407 6.31637 15.0707 6.38637C12.0707 3.97637 8.78065 2.61637 7.17065 4.22637C7.00201 4.39877 6.86342 4.59819 6.76065 4.81637V4.91637L6.58065 5.44637L2.17065 18.5464C2.00384 19.04 1.95705 19.5663 2.03415 20.0817C2.11125 20.597 2.31002 21.0866 2.614 21.5098C2.91798 21.933 3.31842 22.2778 3.78216 22.5154C4.24589 22.753 4.75957 22.8768 5.28065 22.8764C5.62089 22.8731 5.95844 22.8157 6.28065 22.7064L20.0007 18.1564C20.1693 18.0936 20.3178 17.9865 20.4307 17.8464L20.6407 17.6664C22.0707 16.2264 21.1507 13.4564 19.2307 10.7664C20.3707 10.101 21.6834 9.79113 23.0007 9.87637V7.87637C21.238 7.77939 19.4893 8.23755 18.0007 9.18637ZM5.70065 20.8064C5.47366 20.8815 5.23025 20.8921 4.9976 20.8369C4.76496 20.7817 4.55222 20.6629 4.38315 20.4939C4.21408 20.3248 4.09532 20.1121 4.04014 19.8794C3.98496 19.6468 3.99552 19.4034 4.07065 19.1764L5.43065 15.0764C6.40124 16.9273 7.89261 18.4534 9.72065 19.4664L5.70065 20.8064ZM12.7007 18.4764C11.1894 18.0761 9.81074 17.2836 8.70439 16.179C7.59804 15.0744 6.80329 13.697 6.40065 12.1864L7.40065 9.18637L7.46065 9.27637C7.57065 9.49637 7.71065 9.72637 7.85065 9.95637C7.99065 10.1864 8.01065 10.2464 8.11065 10.3964C8.21065 10.5464 8.44065 10.8764 8.62065 11.1264C8.80065 11.3764 8.81065 11.4064 8.92065 11.5464C9.03065 11.6864 9.35065 12.0964 9.58065 12.3664L9.87065 12.7164C10.2107 13.1064 10.5707 13.4864 10.9507 13.8764C11.3307 14.2664 11.6307 14.5164 11.9507 14.8764L12.2807 15.1564L13.0607 15.7864L13.4307 16.0664C13.7107 16.2664 13.9807 16.4664 14.2607 16.6464L14.5707 16.8464C14.9307 17.0664 15.2907 17.2764 15.6407 17.4564H15.6907L12.7007 18.4764ZM19.2107 16.2464H19.1507C18.4607 16.6264 15.5907 15.6764 12.3607 12.4364C12.0207 12.0964 11.7007 11.7664 11.4107 11.4364L11.1207 11.0864L10.5907 10.4464L10.3007 10.0464C10.1707 9.85637 10.0307 9.67637 9.91065 9.49637L9.65065 9.07637L9.36065 8.60637C9.28065 8.46637 9.22065 8.33637 9.15065 8.20637C9.08065 8.07637 9.00065 7.94637 8.94065 7.80637C8.88702 7.6892 8.84027 7.56899 8.80065 7.44637C8.75065 7.31637 8.69065 7.18637 8.65065 7.06637C8.61065 6.94637 8.60065 6.87637 8.57065 6.75637C8.54065 6.63637 8.52065 6.53637 8.50065 6.43637C8.49566 6.34977 8.49566 6.26296 8.50065 6.17637C8.49102 6.09666 8.49102 6.01608 8.50065 5.93637L8.61065 5.62637C8.97065 5.26637 10.8407 5.62637 13.3407 7.52637C12.9169 7.71763 12.4638 7.83596 12.0007 7.87637V9.87637C13.0629 9.81527 14.0935 9.49234 15.0007 8.93637L15.4807 9.39637C15.9007 9.81637 16.2907 10.2464 16.6607 10.6764C16.0882 11.7115 15.8771 12.9078 16.0607 14.0764L18.0607 13.6864C18.0017 13.3154 18.0017 12.9374 18.0607 12.5664C18.3659 13.0292 18.6366 13.5138 18.8707 14.0164C19.4307 15.3364 19.3907 16.0764 19.2107 16.2464Z" fill="black"/>
</svg>
