<svg width="16" height="16" viewBox="0 0 16 16" fill="none" xmlns="http://www.w3.org/2000/svg">
<path fill-rule="evenodd" clip-rule="evenodd" d="M4.66667 4C4.66667 2.89543 5.5621 2 6.66667 2H12C13.1046 2 14 2.89543 14 4V10C14 11.1047 13.1043 12 11.9998 12H10.8205V10.6667H11.9998C12.3681 10.6667 12.6667 10.3681 12.6667 10V4C12.6667 3.63181 12.3682 3.33333 12 3.33333H6.66667C6.29848 3.33333 6 3.63181 6 4L6.00001 5.80952L4.66667 5.80953L4.66667 4Z" fill="#555659"/>
<path fill-rule="evenodd" clip-rule="evenodd" d="M3.42828 6.06258C3.37851 6.1214 3.33333 6.22194 3.33333 6.35294V12.9804C3.33333 13.1114 3.37851 13.2119 3.42828 13.2708C3.47684 13.3281 3.51502 13.3333 3.52935 13.3333H9.80398C9.81831 13.3333 9.85649 13.3281 9.90505 13.2708C9.95482 13.2119 10 13.1114 10 12.9804V6.35294C10 6.22194 9.95482 6.1214 9.90505 6.06258C9.85649 6.00519 9.81831 6 9.80398 6H3.52935C3.51502 6 3.47684 6.00519 3.42828 6.06258ZM2 6.35294C2 5.53042 2.58462 4.66667 3.52935 4.66667H9.80398C10.7487 4.66667 11.3333 5.53042 11.3333 6.35294V12.9804C11.3333 13.8029 10.7487 14.6667 9.80398 14.6667H3.52935C2.58462 14.6667 2 13.8029 2 12.9804V6.35294Z" fill="#555659"/>
</svg>
