<svg width="24" height="24" viewBox="0 0 24 24" fill="none" xmlns="http://www.w3.org/2000/svg">
  <path
    d="M21 3.99569C20.9895 3.90382 20.9694 3.81332 20.94 3.72569V3.63569C20.892 3.5244 20.8242 3.42275 20.74 3.33569C20.6551 3.25595 20.557 3.19165 20.45 3.14569H20.36C20.2678 3.0753 20.1623 3.02428 20.05 2.99569H20C19.9005 2.9806 19.7994 2.9806 19.7 2.99569L1.69996 8.99569C1.49989 9.06145 1.32569 9.18869 1.20219 9.35928C1.07869 9.52987 1.01221 9.73509 1.01221 9.94569C1.01221 10.1563 1.07869 10.3615 1.20219 10.5321C1.32569 10.7027 1.49989 10.8299 1.69996 10.8957L10.23 13.7357L13.07 22.2657C13.1357 22.4658 13.263 22.64 13.4335 22.7635C13.6041 22.887 13.8094 22.9534 14.02 22.9534C14.2306 22.9534 14.4358 22.887 14.6064 22.7635C14.777 22.64 14.9042 22.4658 14.97 22.2657L20.97 4.26569C20.9922 4.17747 21.0023 4.08663 21 3.99569ZM16.3 6.28569L10.73 11.8557L5.15996 9.99569L16.3 6.28569ZM14 18.8357L12.14 13.2657L17.71 7.69569L14 18.8357Z"
    fill="black" />
</svg>
