<svg width="24" height="24" viewBox="0 0 24 24" fill="none" xmlns="http://www.w3.org/2000/svg">
<path fill-rule="evenodd" clip-rule="evenodd" d="M4.73132 19.1482L4.73133 4.8528C4.73133 4.38828 5.10789 4.01172 5.57241 4.01172H12.8549L12.8549 7.36029C12.8549 8.95864 14.1506 10.2544 15.7489 10.2543L19.2687 10.2543V19.1482C19.2687 19.6127 18.8921 19.9893 18.4276 19.9893H5.5724C5.10788 19.9893 4.73132 19.6127 4.73132 19.1482ZM18.5432 8.25433L14.8549 4.64962L14.8549 7.36029C14.8549 7.85407 15.2551 8.25435 15.7489 8.25435L18.5432 8.25433ZM21.2687 9.31743C21.2687 8.55264 20.9604 7.82014 20.4134 7.28559L15.8452 2.82095C15.3144 2.30217 14.6016 2.01172 13.8594 2.01172H5.57241C4.00332 2.01172 2.73133 3.28371 2.73133 4.8528L2.73132 19.1482C2.73132 20.7173 4.00332 21.9893 5.5724 21.9893H18.4276C19.9967 21.9893 21.2687 20.7173 21.2687 19.1482V9.31743ZM16.9984 14.144L7.00163 14.144L7.00162 12.144L16.9984 12.144L16.9984 14.144ZM7.00163 18.0282L16.9984 18.0281L16.9984 16.0281L7.00162 16.0282L7.00163 18.0282Z" fill="black"/>
</svg>
