<svg width="22" height="19" viewBox="0 0 22 19" fill="none" xmlns="http://www.w3.org/2000/svg">
  <path fill-rule="evenodd" clip-rule="evenodd"
    d="M3.99506 16.2163C3.31283 16.2163 2.75977 15.6632 2.75977 14.981V11.6281H0.759766V14.981C0.759766 16.7678 2.20826 18.2163 3.99506 18.2163H7.33759V16.2163H3.99506ZM17.9913 16.2163C18.6735 16.2163 19.2266 15.6632 19.2266 14.981V11.6281H21.2266V14.981C21.2266 16.7678 19.7781 18.2163 17.9913 18.2163H14.6487V16.2163H17.9913ZM11.9937 8.99896L11.9937 0.738186H9.99375V9.02161L7.29149 6.31935L5.87728 7.73357L10.2753 12.1316C10.6658 12.5221 11.299 12.5221 11.6895 12.1316L16.0876 7.73356L14.6734 6.31935L11.9937 8.99896Z"
    fill="black" />
</svg>
