<svg width="24" height="24" viewBox="0 0 24 24" fill="none" xmlns="http://www.w3.org/2000/svg">
<path fill-rule="evenodd" clip-rule="evenodd" d="M18 8C18 11.3137 15.3137 14 12 14C8.68629 14 6 11.3137 6 8C6 4.68629 8.68629 2 12 2C15.3137 2 18 4.68629 18 8ZM16 8C16 10.2091 14.2091 12 12 12C9.79086 12 8 10.2091 8 8C8 5.79086 9.79086 4 12 4C14.2091 4 16 5.79086 16 8Z" fill="black"/>
<path fill-rule="evenodd" clip-rule="evenodd" d="M21.2687 18.8411C21.2687 17.272 19.9967 16 18.4276 16H5.53133C3.98493 16 2.73132 17.2536 2.73132 18.8V19.1887C2.73132 20.7351 3.98493 21.9887 5.53132 21.9887H18.4687C20.0151 21.9887 21.2687 20.7351 21.2687 19.1887V18.8411ZM4.73132 19.1887L4.73132 18.8C4.73132 18.3582 5.0895 18 5.53133 18H18.4276C18.8921 18 19.2687 18.3766 19.2687 18.8411V19.1887C19.2687 19.6305 18.9105 19.9887 18.4687 19.9887H5.53132C5.08949 19.9887 4.73132 19.6305 4.73132 19.1887Z" fill="black"/>
</svg>
