<svg width="24" height="25" viewBox="0 0 24 25" fill="none" xmlns="http://www.w3.org/2000/svg">
<path fill-rule="evenodd" clip-rule="evenodd" d="M21.9852 19.6301C21.9852 18.0611 20.7132 16.7891 19.1442 16.7891H15.6231H5.31965H5.31953C3.77314 16.7891 2.51953 18.0427 2.51953 19.5891V19.9777C2.51953 21.5241 3.77313 22.7778 5.31953 22.7778H5.31965H15.6641H19.1852C20.7316 22.7778 21.9852 21.5241 21.9852 19.9778V19.6301ZM4.51953 19.5891V19.9778C4.51953 20.4196 4.8777 20.7778 5.31953 20.7778H15.664C16.0545 20.7778 16.3797 20.498 16.4499 20.1279V19.4761C16.3776 19.0852 16.0349 18.7891 15.6229 18.7891H5.31953C4.8777 18.7891 4.51953 19.1472 4.51953 19.5891Z" fill="black"/>
<path fill-rule="evenodd" clip-rule="evenodd" d="M5.31641 8.78908C5.31641 11.9846 7.81455 14.5967 10.9644 14.7789L10.9645 14.7821C11.8251 14.8493 12.6975 14.8497 13.5582 14.7821L13.5582 14.7778C16.6989 14.5859 19.1868 11.978 19.1868 8.78908C19.1868 5.60769 16.7107 3.00462 13.5806 2.8018L13.5806 2.7986C12.728 2.73203 11.8639 2.73101 11.0111 2.79671C7.83927 2.95566 5.31641 5.57775 5.31641 8.78908ZM11.3164 12.7891C13.5255 12.7891 15.3164 10.9982 15.3164 8.78906C15.3164 6.57992 13.5255 4.78906 11.3164 4.78906C9.10727 4.78906 7.31641 6.57992 7.31641 8.78906C7.31641 10.9982 9.10727 12.7891 11.3164 12.7891Z" fill="black"/>
</svg>
