<svg width="101" height="20" viewBox="0 0 101 20" fill="none" xmlns="http://www.w3.org/2000/svg">
    <g clip-path="url(#clip0_4726_7427)">
        <path d="M14.4255 2.00977C12.9864 2.01405 11.6053 2.57752 10.574 3.58116L11.1039 4.64726L10.879 4.82596C10.3984 3.9822 9.70587 3.27855 8.86985 2.78461C8.03384 2.29068 7.08334 2.02359 6.11241 2.00977C3.07744 2.00977 0.612494 4.67191 0.612494 7.78083V14.4947C0.609863 14.5521 0.619223 14.6093 0.63997 14.6629C0.660717 14.7164 0.692392 14.765 0.732985 14.8056C0.773578 14.8462 0.822196 14.8779 0.875723 14.8986C0.92925 14.9194 0.986522 14.9287 1.04387 14.9261H3.24999C3.30337 14.9265 3.35631 14.9163 3.40567 14.8959C3.45503 14.8756 3.49982 14.8456 3.53742 14.8077C3.57503 14.7698 3.60469 14.7248 3.62465 14.6753C3.6446 14.6258 3.65445 14.5728 3.65363 14.5194V7.74077C3.65363 6.20018 4.57798 4.92764 6.18944 4.92764C7.68382 4.92764 8.74684 6.04303 8.74684 7.70071V13.2746C8.74393 13.3299 8.75226 13.3853 8.77135 13.4373C8.79044 13.4894 8.81987 13.537 8.85789 13.5773C8.89591 13.6176 8.94173 13.6498 8.99254 13.6719C9.04336 13.694 9.09812 13.7056 9.15354 13.7059H11.258C11.3133 13.7056 11.3679 13.6941 11.4186 13.6719C11.4693 13.6498 11.5149 13.6175 11.5527 13.5771C11.5904 13.5368 11.6196 13.4891 11.6383 13.4371C11.6571 13.3851 11.665 13.3298 11.6616 13.2746V7.6884C11.6616 6.03996 12.777 4.91532 14.2714 4.91532C15.8675 4.91532 16.7549 6.18169 16.7549 7.72845V14.5071C16.7597 14.6177 16.8074 14.722 16.888 14.798C16.9685 14.8739 17.0755 14.9155 17.1862 14.9138H19.3646C19.422 14.9164 19.4792 14.9071 19.5328 14.8863C19.5863 14.8656 19.6349 14.8339 19.6755 14.7933C19.7161 14.7527 19.7478 14.7041 19.7685 14.6506C19.7893 14.597 19.7986 14.5398 19.796 14.4824V7.78083C19.796 4.67191 17.4389 2.00977 14.4255 2.00977Z"
                fill="#00B463" />
        <path d="M34.1421 2.26549H32.1393C32.0843 2.26212 32.0291 2.27008 31.9773 2.28885C31.9254 2.30762 31.878 2.33682 31.8378 2.37464C31.7977 2.41246 31.7657 2.4581 31.7439 2.50875C31.7221 2.5594 31.7109 2.61398 31.711 2.66913V2.94952L32.4197 4.06491L32.2287 4.25595C31.643 3.56397 30.916 3.00548 30.0965 2.61803C29.2769 2.23058 28.3839 2.02317 27.4775 2.00977C25.7546 2.04702 24.1148 2.7576 22.9095 3.98924C21.7043 5.22088 21.0293 6.87562 21.0293 8.59889C21.0293 10.3222 21.7043 11.9769 22.9095 13.2085C24.1148 14.4402 25.7546 15.1507 27.4775 15.188C28.387 15.1772 29.2837 14.9721 30.1074 14.5863C30.9311 14.2004 31.6628 13.6429 32.2533 12.9511L32.4197 13.0836L31.711 14.2513V14.504C31.7102 14.5606 31.7207 14.6168 31.7419 14.6693C31.7631 14.7218 31.7946 14.7696 31.8344 14.8097C31.8743 14.8499 31.9219 14.8817 31.9742 14.9033C32.0266 14.9249 32.0827 14.9358 32.1393 14.9353H34.1421C34.1994 14.938 34.2567 14.9286 34.3102 14.9079C34.3638 14.8871 34.4124 14.8554 34.453 14.8148C34.4935 14.7743 34.5252 14.7257 34.546 14.6721C34.5667 14.6186 34.5761 14.5613 34.5734 14.504V2.66913C34.5755 2.61316 34.5655 2.5574 34.5442 2.50563C34.5229 2.45385 34.4907 2.40726 34.4498 2.369C34.4089 2.33074 34.3602 2.3017 34.3072 2.28385C34.2541 2.26599 34.1978 2.25972 34.1421 2.26549ZM27.4775 12.3502C25.2991 12.3502 23.78 10.8096 23.78 8.62507C23.78 6.44051 25.3022 4.85061 27.4775 4.85061C27.9786 4.83019 28.4785 4.91384 28.9457 5.0963C29.4129 5.27875 29.8372 5.55605 30.1918 5.91069C30.5465 6.26534 30.8238 6.68964 31.0062 7.15682C31.1887 7.624 31.2724 8.12394 31.2519 8.62507C31.2519 10.8035 29.6836 12.3502 27.4775 12.3502Z"
                fill="#00B463" />
        <path d="M62.7446 2.26549H60.7449C60.6897 2.26214 60.6345 2.27009 60.5825 2.28883C60.5304 2.30757 60.4828 2.33671 60.4424 2.37449C60.402 2.41227 60.3698 2.45788 60.3476 2.50854C60.3255 2.5592 60.3139 2.61384 60.3136 2.66913V2.94952L61.0223 4.06491L60.8312 4.25595C60.2449 3.5632 59.5169 3.00423 58.6962 2.61675C57.8756 2.22927 56.9813 2.02229 56.0739 2.00977C54.383 2.09159 52.7885 2.82087 51.6208 4.04645C50.4531 5.27203 49.8018 6.89992 49.8018 8.59272C49.8018 10.2855 50.4531 11.9134 51.6208 13.139C52.7885 14.3646 54.383 15.0939 56.0739 15.1757C56.9834 15.1647 57.88 14.9595 58.7037 14.5737C59.5274 14.1879 60.2591 13.6304 60.8497 12.9387L61.013 13.0712L60.3043 14.239V14.4917C60.3039 14.5484 60.3148 14.6047 60.3363 14.6572C60.3579 14.7097 60.3896 14.7574 60.4298 14.7976C60.4699 14.8377 60.5176 14.8695 60.5701 14.891C60.6227 14.9125 60.6789 14.9234 60.7357 14.923H62.7354C62.7927 14.9257 62.85 14.9163 62.9035 14.8955C62.9571 14.8748 63.0057 14.8431 63.0463 14.8025C63.0868 14.7619 63.1185 14.7133 63.1393 14.6598C63.16 14.6063 63.1694 14.549 63.1668 14.4917V2.66913C63.1687 2.61401 63.1589 2.55913 63.1381 2.50805C63.1173 2.45697 63.086 2.41087 63.0461 2.37276C63.0063 2.33465 62.9588 2.30538 62.9068 2.28689C62.8549 2.26841 62.7996 2.26112 62.7446 2.26549ZM56.0739 12.3502C53.8924 12.3502 52.3764 10.8096 52.3764 8.62507C52.3764 6.44051 53.8955 4.85061 56.0739 4.85061C56.575 4.83019 57.0749 4.91384 57.5421 5.0963C58.0093 5.27875 58.4336 5.55605 58.7882 5.91069C59.1429 6.26534 59.4202 6.68964 59.6026 7.15682C59.7851 7.624 59.8687 8.12394 59.8483 8.62507C59.8576 10.8035 58.2862 12.3502 56.0739 12.3502Z"
                fill="#00B463" />
        <path d="M47.8533 2.26539H45.8012C45.4715 2.26539 45.2928 2.44102 45.2928 2.61973V8.80368C45.2928 10.7294 44.0265 12.0697 42.0761 12.0697C40.2766 12.0697 39.112 10.7294 39.112 8.80368V2.61973C39.112 2.44102 38.8316 2.26539 38.6559 2.26539H36.4498C36.358 2.27184 36.2715 2.31126 36.2064 2.37636C36.1413 2.44146 36.1019 2.52789 36.0955 2.61973V8.78211C36.0955 12.0759 38.6806 14.9445 42.0761 14.9445C43.6108 14.9433 45.0926 14.3836 46.2449 13.37L46.3589 13.4748L45.4345 14.7072V15.1756C45.4345 16.4419 43.5335 17.1506 42.4181 17.1506H41.7094C41.6527 17.1473 41.596 17.1552 41.5423 17.1738C41.4887 17.1925 41.4393 17.2215 41.397 17.2593C41.3546 17.2971 41.3201 17.3429 41.2955 17.394C41.2708 17.4452 41.2565 17.5007 41.2534 17.5573V19.5848C41.2635 19.6978 41.3163 19.8027 41.401 19.8783C41.4857 19.9538 41.5959 19.9943 41.7094 19.9915H42.4181C45.8074 19.9915 48.297 18.0134 48.297 14.2882V2.61973C48.2831 2.5148 48.2291 2.41932 48.1464 2.35327C48.0637 2.28722 47.9587 2.25572 47.8533 2.26539Z"
                fill="#00B463" />
        <path d="M91.7911 0H67.9765C67.5195 0.00081623 67.0814 0.182968 66.7584 0.506467C66.4355 0.829966 66.2541 1.26837 66.2542 1.72546V8.59959C66.2542 10.8795 67.1599 13.0661 68.772 14.6783C70.3842 16.2904 72.5707 17.1961 74.8507 17.1961H91.7972C94.0494 17.1535 96.1949 16.2289 97.7726 14.6211C99.3502 13.0133 100.234 10.8506 100.234 8.59807C100.234 6.3455 99.3502 4.18285 97.7726 2.57504C96.1949 0.967235 94.0494 0.0426362 91.7972 0H91.7911Z"
                fill="#00B463" />
        <path d="M71.446 5.46875H73.4889C74.8538 5.46875 75.5687 6.01104 75.5687 7.0648C75.5924 7.34397 75.5275 7.62353 75.3831 7.86363C75.2387 8.10373 75.0222 8.29215 74.7645 8.40205C75.1229 8.47532 75.4423 8.67703 75.6625 8.96926C75.8826 9.26149 75.9884 9.62408 75.96 9.98885C75.96 11.5294 74.5673 11.7297 73.8031 11.7297H71.4553L71.446 5.46875ZM73.4704 8.10008C74.1421 8.10008 74.4718 7.82278 74.4718 7.24352C74.4718 6.66425 74.1328 6.38694 73.4704 6.38694H72.546V8.08776L73.4704 8.10008ZM73.8031 10.7838C74.5149 10.7838 74.8538 10.4757 74.8538 9.85944C74.8538 9.24321 74.5149 8.93509 73.8031 8.93509H72.5522V10.7838H73.8031Z"
                fill="white" />
        <path d="M78.7947 5.46875H80.1782L82.5322 11.7297H81.3644L80.856 10.3463H78.1168L77.6085 11.7297H76.4407L78.7947 5.46875ZM80.5263 9.42807L79.4911 6.58414L78.4558 9.42807H80.5263Z"
                fill="white" />
        <path d="M83.2625 5.46875H84.5904L87.6162 10.2199V5.46875H88.7131V11.7297H87.3758L84.3686 6.97546V11.7297H83.2625V5.46875Z"
                fill="white" />
        <path d="M91.6278 8.97206H91.0824V11.7451H89.967V5.46875H91.0732V8.01073H91.6001L93.7569 5.46875H95.0479L92.5429 8.42977L95.1927 11.7297H93.8L91.6278 8.97206Z"
                fill="white" />
    </g>
    <defs>
        <clipPath id="clip0_4726_7427">
            <rect width="99.7751" height="20" fill="white" transform="translate(0.612549)" />
        </clipPath>
    </defs>
</svg>
