<svg width="24" height="24" viewBox="0 0 24 24" fill="none" xmlns="http://www.w3.org/2000/svg">
  <path fill-rule="evenodd" clip-rule="evenodd"
    d="M21.7498 17.9962C21.2866 19.055 20.2297 19.7949 19 19.7949H19V22.0449H16.7V19.7949H7.3V22.0449H5L5 19.7949C3.34314 19.7949 2 18.4518 2 16.7949L2 5.54492C2.00001 3.88807 3.34315 2.54492 5.00001 2.54492L18.2126 2.54494L18.9999 2.54492C19.6133 2.54491 20.1837 2.72899 20.6589 3.04492C21.4672 3.58238 22 4.50144 22 5.54492V16.7949C22 16.7949 22 16.7949 22 16.7949C22 17.2221 21.9107 17.6284 21.7498 17.9962ZM16.7 4.54493L5.00001 4.54492C4.44772 4.54492 4 4.99264 4 5.54492L4 10.1699H5.42375C5.88702 7.88768 7.90477 6.16992 10.3237 6.16992C13.0852 6.16992 15.3237 8.4085 15.3237 11.1699C15.3237 13.9313 13.0852 16.1699 10.3237 16.1699C7.90477 16.1699 5.88702 14.4522 5.42375 12.1699H4L4 16.7949C4 17.3472 4.44772 17.7949 5 17.7949H16.7V4.54493ZM11.0355 12.1699H7.49444C7.90627 13.3351 9.01751 14.1699 10.3237 14.1699C11.9806 14.1699 13.3237 12.8268 13.3237 11.1699C13.3237 9.51307 11.9806 8.16992 10.3237 8.16992C9.01751 8.16992 7.90627 9.00473 7.49444 10.1699H11.0355V12.1699Z"
    fill="black" />
</svg>
