<svg width="39" height="39" viewBox="0 0 39 39" fill="none" xmlns="http://www.w3.org/2000/svg">
<path d="M19.4998 38.22C29.8386 38.22 38.2198 29.8388 38.2198 19.5C38.2198 9.16126 29.8386 0.780029 19.4998 0.780029C9.16101 0.780029 0.779785 9.16126 0.779785 19.5C0.779785 29.8388 9.16101 38.22 19.4998 38.22Z" fill="#1DC439"/>
<path d="M19.5 39C15.6433 39 11.8731 37.8564 8.66639 35.7137C5.45963 33.571 2.96027 30.5255 1.48436 26.9623C0.00844898 23.3992 -0.377716 19.4784 0.374696 15.6957C1.12711 11.9131 2.9843 8.43855 5.71143 5.71143C8.43855 2.9843 11.9131 1.12711 15.6957 0.374696C19.4784 -0.377716 23.3992 0.00844898 26.9623 1.48436C30.5255 2.96027 33.571 5.45963 35.7137 8.66639C37.8564 11.8731 39 15.6433 39 19.5C38.9942 24.6699 36.9379 29.6265 33.2822 33.2822C29.6265 36.9379 24.6699 38.9942 19.5 39ZM19.5 1.95001C16.0289 1.95001 12.6358 2.9793 9.74975 4.90772C6.86367 6.83614 4.61424 9.57707 3.28592 12.7839C1.95761 15.9908 1.61006 19.5195 2.28723 22.9238C2.9644 26.3282 4.63587 29.4553 7.09028 31.9097C9.5447 34.3641 12.6718 36.0356 16.0762 36.7128C19.4805 37.39 23.0093 37.0424 26.2161 35.7141C29.4229 34.3858 32.1639 32.1363 34.0923 29.2503C36.0207 26.3642 37.05 22.9711 37.05 19.5C37.0444 14.8472 35.1935 10.3866 31.9035 7.09652C28.6135 3.80648 24.1528 1.95565 19.5 1.95001Z" fill="white"/>
</svg>
