<svg width="24" height="24" viewBox="0 0 24 24" fill="none" xmlns="http://www.w3.org/2000/svg">
<path fill-rule="evenodd" clip-rule="evenodd" d="M4 3.33334C3.44772 3.33334 3 3.78106 3 4.33334V17.6667C3 18.219 3.44772 18.6667 4 18.6667H13V20.6667H4C2.34315 20.6667 1 19.3235 1 17.6667V4.33334C1 2.67649 2.34315 1.33334 4 1.33334H15.3333C16.9902 1.33334 18.3333 2.67649 18.3333 4.33334V6.08799C20.986 6.56032 23 8.87831 23 11.6667C23 13.6521 21.9789 15.399 20.4333 16.411V22.321L17.3333 20.8725L14.2333 22.321V16.411C12.6877 15.399 11.6666 13.6521 11.6666 11.6667C11.6666 8.87829 13.6806 6.56027 16.3333 6.08798V4.33334C16.3333 3.78106 15.8856 3.33334 15.3333 3.33334H4ZM13.6666 11.6667C13.6666 9.64165 15.3082 8.00003 17.3333 8.00003C19.3583 8.00003 21 9.64165 21 11.6667C21 13.6917 19.3583 15.3334 17.3333 15.3334C15.3082 15.3334 13.6666 13.6917 13.6666 11.6667ZM4.33337 6.66666H11.6667V8.66666H4.33337V6.66666ZM9.83382 10.6667H4.33337V12.6667H9.83382V10.6667Z" fill="black"/>
</svg>
