<svg width="32" height="33" viewBox="0 0 32 33" fill="none" xmlns="http://www.w3.org/2000/svg">
<path fill-rule="evenodd" clip-rule="evenodd" d="M16.6329 1.75705C16.2383 1.54453 15.7632 1.54453 15.3686 1.75705L2.36859 8.75753C1.93672 8.99009 1.66742 9.44098 1.66742 9.93148V12.265C1.66742 12.6186 1.8079 12.9577 2.05794 13.2078C2.30799 13.4578 2.64713 13.5983 3.00075 13.5983H4.60834V23.7903C4.60834 24.5267 5.20529 25.1236 5.94167 25.1236H26.0577C26.7941 25.1236 27.3911 24.5267 27.3911 23.7903V13.5983H29.0008C29.7371 13.5983 30.3341 13.0014 30.3341 12.265V9.93148C30.3341 9.44098 30.0648 8.99009 29.6329 8.75753L16.6329 1.75705ZM7.275 22.457V13.5983H11.3137V22.457H7.275ZM13.9804 22.457V13.5983H18.0191V22.457H13.9804ZM20.6858 22.457V13.5983H24.7244V22.457H20.6858Z" fill="#00A651"/>
<path d="M30.3341 27.7438H1.66742V30.4105H30.3341V27.7438Z" fill="#00A651"/>
</svg>
