<svg width="14" height="14" viewBox="0 0 14 14" fill="none" xmlns="http://www.w3.org/2000/svg">
<path fill-rule="evenodd" clip-rule="evenodd" d="M7.00016 1.66665C9.94568 1.66665 12.3335 4.05446 12.3335 6.99998C12.3335 9.9455 9.94568 12.3333 7.00016 12.3333C4.05464 12.3333 1.66683 9.9455 1.66683 6.99998C1.66683 4.05446 4.05464 1.66665 7.00016 1.66665ZM13.6668 6.99998C13.6668 3.31808 10.6821 0.333313 7.00016 0.333313C3.31826 0.333313 0.333496 3.31808 0.333496 6.99998C0.333496 10.6819 3.31826 13.6666 7.00016 13.6666C10.6821 13.6666 13.6668 10.6819 13.6668 6.99998ZM6.3335 6.04767V10.5543H7.66683V6.04767H6.3335ZM6.3335 4.74672V3.41339H7.66683V4.74672H6.3335Z" fill="#808080"/>
</svg>
