<svg width="20" height="20" viewBox="0 0 20 20" fill="none" xmlns="http://www.w3.org/2000/svg">
  <path fill-rule="evenodd" clip-rule="evenodd"
    d="M16.8914 0.382812H16.8516H14.8535H3.10767C1.45081 0.382812 0.107666 1.72596 0.107666 3.38281V16.9211C0.107666 18.578 1.45081 19.9211 3.10767 19.9211H13.8516C15.5084 19.9211 16.8516 18.578 16.8516 16.9211V11.8997H19.8914V3.38281C19.8914 1.72596 18.5483 0.382812 16.8914 0.382812ZM14.8516 2.38281L3.10767 2.38281C2.55538 2.38281 2.10766 2.83053 2.10766 3.38281L2.10766 16.9211C2.10766 17.4734 2.55538 17.9211 3.10767 17.9211H13.8516C14.4039 17.9211 14.8516 17.4734 14.8516 16.9211L14.8516 2.38281ZM12.4555 7.3332H4.50392V5.0332H12.4555V7.3332ZM4.50392 11.8054H12.4555V9.50537H4.50392V11.8054Z"
    fill="black" />
</svg>
