<svg width="24" height="24" viewBox="0 0 24 24" fill="none" xmlns="http://www.w3.org/2000/svg">
<path fill-rule="evenodd" clip-rule="evenodd" d="M4.07494 6.82038L4.07043 6.8007L13.7613 2.28179C15.2614 1.58226 17.0446 2.2299 17.7463 3.72904L19.125 6.67505H19.5467C21.2035 6.67505 22.5467 8.01819 22.5467 9.67505V19.341C22.5467 20.9979 21.2035 22.341 19.5467 22.341H5C3.34315 22.341 2 20.9979 2 19.341V9.67505C2 8.34099 2.87077 7.21032 4.07494 6.82038ZM4.76252 8.70342C4.32488 8.81001 4 9.20459 4 9.67505V19.341C4 19.8933 4.44772 20.341 5 20.341H19.5467C20.099 20.341 20.5467 19.8933 20.5467 19.341V16.4875H18.7072C17.4357 16.4875 16.405 15.4568 16.405 14.1853C16.405 12.9139 17.4357 11.8832 18.7072 11.8832H20.5467V9.67505C20.5467 9.12276 20.099 8.67505 19.5467 8.67505H6.83889L4.76252 8.70342Z" fill="black"/>
</svg>
