<svg width="23" height="19" viewBox="0 0 23 19" fill="none" xmlns="http://www.w3.org/2000/svg">
<path fill-rule="evenodd" clip-rule="evenodd" d="M18.2603 6.18475C19.7244 7.33417 21.0288 8.80397 22.2033 10.46C22.3547 10.6734 22.4429 10.9067 22.4429 11.1091C22.4429 11.3116 22.3511 11.5501 22.1979 11.7659C19.3921 15.7191 15.846 18.6091 11.151 18.6091C6.68206 18.6091 3.25404 15.9907 0.514609 12.3295C0.21885 11.9342 0 11.5598 0 11.1091C0 10.6585 0.203279 10.3061 0.49061 9.92091C1.52313 8.53661 2.65362 7.30024 3.90102 6.29654L1.86047 3.38234L3.74452 2.06311L5.80592 5.00709C7.0879 4.29609 8.48102 3.82645 10.001 3.66828V0H12.301V3.66828C13.7585 3.81996 15.0994 4.25806 16.3375 4.92074L18.3385 2.06311L20.2225 3.38234L18.2603 6.18475ZM11.151 16.3091C7.76846 16.3091 4.97522 14.3949 2.47506 11.1091C4.97498 7.82356 7.76853 5.90913 11.151 5.90913C14.5329 5.90913 17.3313 7.8271 19.8271 11.1091C17.3312 14.3912 14.5329 16.3091 11.151 16.3091Z" fill="#B1B3B5"/>
<path d="M11.1381 7.60913C9.20506 7.60913 7.63806 9.17613 7.63806 11.1091C7.63806 13.0421 9.20506 14.6091 11.1381 14.6091C13.0711 14.6091 14.6381 13.0421 14.6381 11.1091C14.6381 9.17613 13.0711 7.60913 11.1381 7.60913Z" fill="#B1B3B5"/>
</svg>
