<svg width="319" height="151" viewBox="0 0 319 151" fill="none" xmlns="http://www.w3.org/2000/svg">
<defs>
<linearGradient id="paint0_linear_22545_19065" x1="254.712" y1="30.1259" x2="-13.3372" y2="137.001" gradientUnits="userSpaceOnUse">
<stop offset="0.328841" stop-color="#2BDB8F"/>
<stop offset="1" stop-color="#2BDBDB"/>
</linearGradient>
</defs>
<path d="M285.443 2.75585H48.6445C33.8254 2.75585 21.1506 13.4074 18.5991 28.0052L3.91695 112.003C0.654919 130.666 15.017 147.756 33.9624 147.756H270.761C285.58 147.756 298.255 137.104 300.806 122.507L315.488 38.5085C318.75 19.8461 304.388 2.75585 285.443 2.75585Z" fill="#161617" stroke="#555659" stroke-width="5.00001"/>
<path d="M54.4352 125.471L68.9509 50.8769H80.5433L79.132 57.9331C83.9706 53.1954 90.5228 50.0705 97.8815 50.0705C112.599 50.0705 122.074 62.5701 119.151 77.5898C116.127 93.0127 101.813 105.109 87.0955 105.109C79.8377 105.109 74.4951 101.883 71.5718 97.0449L66.0276 125.471H54.4352ZM74.5959 77.5898C72.7814 86.7629 78.8296 94.6256 88.2044 94.6256C97.6799 94.6256 106.45 86.8637 108.365 77.5898C110.079 68.3159 104.333 60.554 94.7566 60.554C85.4827 60.554 76.3095 68.3159 74.5959 77.5898ZM123.249 104.303L136.958 33.7403H148.55L134.841 104.303H123.249ZM167.563 105.21C155.869 105.21 146.797 97.1457 149.418 83.638L155.769 50.8769H167.361L161.615 80.4123C159.902 89.1822 164.942 94.424 171.897 94.424C180.466 94.424 187.723 87.4686 189.538 78.2954L194.78 50.8769H206.372L195.989 104.303H184.397L185.808 97.2465C181.574 101.581 175.325 105.21 167.563 105.21ZM228.788 105.109C221.329 105.109 214.172 102.69 208.023 98.1537L210.341 86.3597C213.768 89.8878 222.337 94.928 230.804 94.928C235.744 94.928 240.885 92.9119 241.59 89.1822C242.296 85.5533 238.264 83.3356 229.393 81.5211C217.095 78.9003 211.45 74.6665 213.164 66.0982C215.079 55.7155 225.865 49.9696 238.163 49.9696C246.126 49.9696 253.082 52.3889 257.618 55.5138L255.501 66.703C247.235 61.3604 240.784 59.9492 236.147 59.9492C230.3 59.9492 225.764 62.3685 225.058 65.9974C224.252 70.4328 230.804 71.1384 238.969 73.1545C250.965 76.1786 254.896 81.7228 253.485 89.283C251.267 100.875 238.969 105.109 228.788 105.109Z" fill="url(#paint0_linear_22545_19065)"/>
</svg>
