<svg width="250" height="110" viewBox="0 0 250 110" fill="none" xmlns="http://www.w3.org/2000/svg">
<defs>
<linearGradient id="paint0_linear_2959_2769" x1="200.486" y1="19.5606" x2="-10.1167" y2="105.195" gradientUnits="userSpaceOnUse">
<stop offset="0.328841" stop-color="#2BDB8F"/>
<stop offset="1" stop-color="#2BDBDB"/>
</linearGradient>
</defs>
<path d="M16.0425 18.2122C17.8828 7.68295 27.025 0 37.714 0H223.755C237.419 0 247.779 12.3268 245.426 25.7876L233.891 91.7877C232.05 102.317 222.908 110 212.219 110H26.1786C12.5136 110 2.15446 97.6732 4.50712 84.2123L16.0425 18.2122Z" fill="#161617"/>
<path d="M42.693 93.6534L54.0978 35.0456H63.2058L62.097 40.5896C65.8986 36.8672 71.0465 34.412 76.8281 34.412C88.3913 34.412 95.8361 44.2328 93.5393 56.0335C91.1633 68.1511 79.9169 77.6551 68.3538 77.6551C62.6514 77.6551 58.4538 75.1207 56.157 71.3191L51.801 93.6534H42.693ZM58.533 56.0335C57.1074 63.2407 61.8594 69.4183 69.225 69.4183C76.6697 69.4183 83.5601 63.3199 85.0649 56.0335C86.4113 48.7471 81.8969 42.6488 74.3729 42.6488C67.0866 42.6488 59.8794 48.7471 58.533 56.0335ZM96.7586 77.0215L107.53 21.5816H116.638L105.867 77.0215H96.7586ZM131.576 77.7343C122.388 77.7343 115.26 71.3983 117.32 60.7855L122.309 35.0456H131.417L126.903 58.2511C125.556 65.1415 129.516 69.2599 134.981 69.2599C141.713 69.2599 147.416 63.7951 148.841 56.5879L152.96 35.0456H162.068L153.91 77.0215H144.802L145.911 71.4775C142.584 74.8831 137.674 77.7343 131.576 77.7343ZM179.68 77.6551C173.819 77.6551 168.196 75.7543 163.364 72.1903L165.186 62.9239C167.879 65.6959 174.611 69.6559 181.264 69.6559C185.144 69.6559 189.184 68.0719 189.738 65.1415C190.292 62.2903 187.124 60.5479 180.155 59.1223C170.492 57.0631 166.057 53.7367 167.404 47.0048C168.908 38.8472 177.383 34.3328 187.045 34.3328C193.302 34.3328 198.767 36.2336 202.331 38.6888L200.668 47.48C194.173 43.2824 189.104 42.1736 185.461 42.1736C180.868 42.1736 177.304 44.0744 176.749 46.9256C176.116 50.4103 181.264 50.9647 187.679 52.5487C197.104 54.9247 200.192 59.2807 199.084 65.2207C197.341 74.3287 187.679 77.6551 179.68 77.6551Z" fill="url(#paint0_linear_2959_2769)"/>
</svg>
