<svg width="17" height="16" viewBox="0 0 17 16" fill="none" xmlns="http://www.w3.org/2000/svg">
<path fill-rule="evenodd" clip-rule="evenodd" d="M2.72194 5.1388L5.65957 1.43235C6.35301 0.557432 7.62847 0.419608 8.49281 1.1262L9.65204 2.07386L10.3578 1.77891C11.3739 1.35429 12.5421 1.83094 12.971 2.84518L13.7726 4.7403C14.8082 4.8158 15.625 5.67999 15.625 6.73494V13.1789C15.625 14.2835 14.7296 15.1789 13.625 15.1789H3.92725C2.82268 15.1789 1.92725 14.2835 1.92725 13.1789V6.73494C1.92725 6.083 2.23918 5.50392 2.72194 5.1388ZM7.64892 2.15849C7.36081 1.92296 6.93565 1.9689 6.7045 2.26054L5.46594 3.82325L8.25802 2.65643L7.64892 2.15849ZM3.66594 6.12144C3.42762 6.22307 3.26058 6.4595 3.26058 6.73494V13.1789C3.26058 13.5471 3.55906 13.8456 3.92725 13.8456H13.625C13.9932 13.8456 14.2917 13.5471 14.2917 13.1789V11.2766L13.0654 11.2766C12.2178 11.2766 11.5306 10.5894 11.5306 9.74181C11.5306 8.89417 12.2178 8.20703 13.0654 8.20703H14.2917V6.73494C14.2917 6.36676 13.9932 6.06828 13.625 6.06828H3.92725C3.86465 6.06828 3.80407 6.0769 3.74663 6.09303L3.66594 6.12144Z" fill="black"/>
<path d="M13.0348 11.2766L14.2611 11.2766V8.20703H13.0348C12.1871 8.20703 11.5 8.89417 11.5 9.74181C11.5 10.5894 12.1871 11.2766 13.0348 11.2766Z" fill="#00A651"/>
</svg>
