<svg width="17" height="16" viewBox="0 0 17 16" fill="none" xmlns="http://www.w3.org/2000/svg">
<path fill-rule="evenodd" clip-rule="evenodd" d="M11.4754 0.948702C12.421 0.834283 13.1781 1.71954 12.9184 2.6359L12.7377 3.2737L14.1648 4.88893H15.6511V9.7522L13.67 10.4618L12.5021 14.6158H8.63171V12.6523H6.92758V14.6158H3.08993L2.19824 11.3448L1.23006 7.53767C0.544175 4.84061 2.5822 2.21942 5.36511 2.21942H8.98005L8.99832 2.19682C9.54331 1.52268 10.3295 1.08737 11.1901 0.983227L11.4754 0.948702ZM11.6356 2.27238L11.3503 2.3069C10.8339 2.36939 10.3622 2.63058 10.0352 3.03506L9.61669 3.55275H5.36511C3.45186 3.55275 2.05072 5.35482 2.52226 7.20905L3.48763 11.0051L4.10845 13.2825H5.59425V11.3189H9.96504V13.2825H11.4919L12.5727 9.43863L14.3178 8.81352V6.22226H13.5636L11.2563 3.61079L11.6356 2.27238Z" fill="black"/>
<path fill-rule="evenodd" clip-rule="evenodd" d="M9.15454 6.13015H5.49749V4.79681L9.15454 4.79681V6.13015Z" fill="#00A651"/>
<path d="M12.1627 6.57027C12.1627 6.99529 11.8182 7.33983 11.3932 7.33983C10.9682 7.33983 10.6236 6.99529 10.6236 6.57027C10.6236 6.14526 10.9682 5.80072 11.3932 5.80072C11.8182 5.80072 12.1627 6.14526 12.1627 6.57027Z" fill="#00A651"/>
</svg>
