<svg width="76" height="25" viewBox="0 0 76 25" fill="none" xmlns="http://www.w3.org/2000/svg">
<path d="M23.2569 8.50483C23.2569 7.90656 23.2504 7.30754 23.1539 6.71515C23.0563 6.12497 22.8839 5.55046 22.6411 5.00631C22.6146 4.94678 22.5695 4.89092 22.5903 4.81742C21.732 3.0689 20.3995 1.86573 18.6157 1.18587C18.5384 1.20939 18.4726 1.15867 18.4011 1.14397C17.7241 0.928697 17.0191 0.821125 16.3104 0.824992C15.7511 0.840723 15.197 0.939752 14.6654 1.11899C14.576 1.14765 14.4894 1.19248 14.3907 1.18072C14.0667 1.27701 13.772 1.44458 13.4695 1.59158C13.3989 1.66193 13.312 1.71253 13.217 1.73858C12.7908 2.00063 12.3899 2.30383 12.0197 2.64408C11.936 2.72345 11.916 2.79107 11.9768 2.8947C12.0762 3.06669 12.1613 3.2475 12.2529 3.42463C12.3322 3.52459 12.4567 3.62013 12.3659 3.76566C12.2364 3.97366 12.1305 3.96778 11.9947 3.75978C11.956 3.70098 11.8974 3.651 11.8952 3.57089C11.4294 2.91379 10.847 2.35298 10.1786 1.91791C10.1028 1.92015 10.0328 1.8764 9.99984 1.80619C9.50745 1.49425 8.97878 1.24732 8.4263 1.07121C8.28963 1.05702 8.15608 1.02029 8.03077 0.962434C8.00717 0.958024 7.98357 0.955084 7.95925 0.949939C6.15469 0.536143 4.52608 0.976398 3.02407 2.02595C2.96731 2.11841 2.8778 2.18456 2.77445 2.21044C2.72081 2.29496 2.66359 2.37581 2.55487 2.39051C2.50409 2.4324 2.45116 2.47282 2.40252 2.51766C1.18661 3.63263 0.447762 5.02322 0.124472 6.65635C0.106017 6.91715 0.07234 7.17657 0.0236228 7.43323C0.0150399 7.66548 1.97478e-05 7.89774 1.97478e-05 8.12999C1.97478e-05 10.8171 1.97478e-05 13.5042 1.97478e-05 16.1913C-0.000489656 16.29 0.00885743 16.3885 0.0279142 16.4853C0.0822727 16.7528 0.261084 16.9432 0.468504 16.9439C1.29032 16.9439 2.11356 16.9498 2.93466 16.9439C3.17643 16.9553 3.39372 16.7933 3.45822 16.5536C3.50042 15.6239 3.47539 14.6941 3.47753 13.7607C3.48182 11.813 3.48182 9.86553 3.47753 7.91831C3.47149 7.57705 3.51218 7.2366 3.59841 6.90698C3.62201 6.82099 3.6263 6.72397 3.70498 6.66223L3.7107 6.59608C3.69711 6.50568 3.75862 6.4579 3.81227 6.40572C3.81227 6.29005 3.86526 6.18113 3.95532 6.11173C4.19019 5.68555 4.50646 5.31255 4.88513 5.01513C5.61182 4.45287 6.41432 4.25369 7.30337 4.48668C8.05362 4.68224 8.71464 5.13915 9.17373 5.77951C9.28365 5.85829 9.36035 5.97704 9.3883 6.11173C9.70756 6.70842 9.86862 7.38084 9.85536 8.06164C9.84749 10.1402 9.85536 12.2194 9.85536 14.298C9.85536 14.445 9.85536 14.592 9.96265 14.711C10.203 15.0249 10.5298 15.0491 10.8875 15.0381C11.4933 15.019 12.1034 15.0285 12.7063 15.0381C12.8637 15.0381 12.9996 15.0124 13.1111 14.8948C13.2341 14.7433 13.2958 14.5492 13.2835 14.3524C13.2835 12.2165 13.2835 10.0806 13.2835 7.94477C13.283 7.61045 13.3204 7.27721 13.3951 6.95181C13.4666 6.64826 13.5567 6.35501 13.7592 6.11246C13.8767 5.9153 14.01 5.72847 14.1575 5.55387C14.6203 5.01786 15.229 4.63709 15.9049 4.46095C15.9588 4.41308 16.029 4.38904 16.1001 4.39407C16.4828 4.37717 16.8662 4.34262 17.2445 4.43596C17.2896 4.44699 17.3397 4.4514 17.3676 4.49844C17.602 4.56817 17.8278 4.66534 18.0406 4.78802C19.205 5.49728 19.7879 6.55933 19.7937 7.94036C19.8044 10.6826 19.7937 13.4255 19.7937 16.1678C19.7903 16.2718 19.7989 16.376 19.8194 16.4779C19.8988 16.819 20.0569 16.9498 20.3916 16.9498C21.1305 16.9498 21.8693 16.9498 22.6089 16.9498C22.7457 16.9542 22.8819 16.9292 23.0087 16.8763L23.1589 16.6984C23.254 16.4618 23.2576 16.2133 23.2576 15.9634C23.2562 13.4758 23.2559 10.9896 23.2569 8.50483Z" fill="#1DC439"/>
<path d="M57.3154 1.08567C56.6065 1.08567 55.897 1.09449 55.1882 1.08567C54.7748 1.07832 54.4451 1.24958 54.4487 1.83536C54.4644 4.44945 54.4644 7.06354 54.4487 9.67763C54.4379 11.2277 53.7642 12.4191 52.4839 13.2445C52.4124 13.343 52.2929 13.368 52.1978 13.4253C52.1522 13.4709 52.0935 13.5 52.0304 13.5084C51.1042 13.9334 50.0482 13.9456 49.1129 13.5422C49.0178 13.4959 48.8984 13.4937 48.834 13.3915C48.3419 13.1404 47.9049 12.7885 47.5501 12.3574C47.4756 12.3253 47.4218 12.2568 47.4071 12.1751C46.8048 11.3365 46.5588 10.392 46.5631 9.35571C46.5745 6.82222 46.5631 4.28873 46.571 1.75598C46.571 1.30102 46.2956 1.08788 45.9222 1.08861C45.1841 1.08861 44.4453 1.08861 43.705 1.08861C43.4782 1.08861 43.2651 1.13345 43.1192 1.33777C43.0694 1.50702 43.0476 1.68368 43.0548 1.86035C43.0548 4.38771 43.0548 6.91507 43.0548 9.44243C43.0548 9.86431 43.0877 10.284 43.1128 10.7051C43.1271 10.7786 43.1428 10.8521 43.1542 10.9212C43.3728 12.2607 43.9283 13.5182 44.7657 14.5689C45.303 15.2405 45.9411 15.8196 46.6561 16.2844L47.5523 16.7643C47.9348 16.9263 48.3268 17.0636 48.726 17.1752C48.887 17.1853 49.0456 17.22 49.1966 17.2781C49.3325 17.2965 49.4677 17.3163 49.6036 17.3339C51.3788 17.5625 52.9939 17.134 54.4537 16.0786C54.6382 15.9448 54.8113 15.7986 54.9951 15.6589C55.0302 15.6317 55.0631 15.5766 55.1145 15.6229C55.166 15.6692 55.1646 15.9441 55.1017 16.0058C54.9379 16.1661 54.7755 16.3285 54.606 16.4821C54.5215 16.5507 54.475 16.6575 54.4816 16.768C54.4894 17.062 54.473 17.356 54.4866 17.65C54.5044 18.0956 54.3787 18.5347 54.1289 18.8995C53.2799 20.2077 52.0662 20.9096 50.5685 21.1221C49.9698 21.2073 49.3668 21.1595 48.7653 21.1676C48.3634 21.1728 48.1617 21.3756 48.1609 21.7887C48.1609 22.5844 48.1609 23.3804 48.1609 24.1766C48.1609 24.5706 48.3755 24.7926 48.7582 24.794C49.193 24.794 49.6279 24.7977 50.0628 24.794C51.5895 24.7815 53.0831 24.3348 54.3778 23.5034C54.4072 23.4295 54.4799 23.3836 54.5574 23.3902C54.7894 23.254 55.0097 23.0979 55.2161 22.9235C55.9371 22.3355 56.5751 21.6696 57.0607 20.8567C57.1083 20.6911 57.1941 20.5398 57.3111 20.4157C57.7502 19.6118 57.9817 18.7057 57.9834 17.7838C57.9834 12.4512 57.9834 7.11891 57.9834 1.78685C57.987 1.28853 57.7903 1.08567 57.3154 1.08567Z" fill="#1DC439"/>
<path fill-rule="evenodd" clip-rule="evenodd" d="M75.9982 1.5939V1.8144C76.0006 6.62707 76.0006 11.4412 75.9982 16.2568C75.9982 16.7662 75.8173 16.9506 75.3166 16.9506H73.1358C72.7102 16.9506 72.5236 16.7294 72.4864 16.3009C72.46 15.9979 72.5941 15.777 72.7294 15.5541C72.7667 15.4926 72.8041 15.431 72.8383 15.3675C72.9478 15.1574 73.0716 14.9555 73.2088 14.7633C73.3568 14.5627 73.3726 14.3709 73.2402 14.1606C73.1823 14.1864 73.1491 14.2368 73.1157 14.2875C73.1033 14.3064 73.0909 14.3252 73.0772 14.3429C72.0823 15.6203 70.8492 16.5391 69.3078 16.994C68.3312 17.2769 67.3073 17.3433 66.3038 17.1888C65.1013 17.0253 63.9526 16.5753 62.9493 15.8746C61.4523 14.8236 60.378 13.4183 59.8022 11.6367C59.2308 9.86687 59.2458 8.10291 59.8237 6.33895C59.8353 6.30206 59.8498 6.26626 59.8644 6.23027C59.8704 6.21536 59.8765 6.20041 59.8823 6.18534C59.9728 6.08358 60.0237 5.95123 60.0254 5.81344C60.018 5.78422 60.0333 5.76627 60.0486 5.74833C60.0583 5.73694 60.068 5.72555 60.0719 5.71128C60.1255 5.68207 60.1517 5.61825 60.1348 5.5584C60.1928 5.40484 60.2646 5.2572 60.3494 5.11741C60.4319 5.05707 60.4842 4.96239 60.4924 4.8587C60.9603 4.03007 61.568 3.29364 62.287 2.68388C62.354 2.62588 62.422 2.56937 62.4902 2.51272C62.5049 2.50045 62.5197 2.48818 62.5345 2.47588C62.5974 2.46571 62.6511 2.42374 62.6775 2.36416L62.9286 2.18409C63.037 2.14579 63.1351 2.08156 63.2147 1.99667C63.8621 1.59617 64.5584 1.28574 65.2853 1.07353C65.3201 1.07241 65.3547 1.06873 65.389 1.06251C66.3267 0.818971 67.2992 0.749526 68.2607 0.857448C68.4946 0.8842 68.7234 0.935023 68.9521 0.985799C69.1004 1.01873 69.2485 1.05163 69.3979 1.07794C70.9736 1.57994 72.2339 2.54277 73.2288 3.8797C73.3733 3.6739 73.3497 3.5078 73.2224 3.31523C72.9878 2.96171 72.7703 2.59568 72.5708 2.22084C72.4299 1.95551 72.452 1.65638 72.565 1.38958C72.6695 1.14262 72.9098 1.0875 73.1537 1.0875C73.8804 1.08407 74.6073 1.08407 75.3345 1.0875C75.4356 1.08902 75.5363 1.10309 75.6342 1.12939C75.8447 1.18022 75.9948 1.37164 75.9982 1.5939ZM71.2583 11.4758L71.3455 11.317C71.8834 10.3307 72.0701 9.28624 71.8634 8.17495C71.755 7.63209 71.5618 7.11086 71.2912 6.63148C71.1922 6.37372 71.0309 6.14608 70.8227 5.97C70.6106 5.7223 70.3726 5.49925 70.1132 5.30484C70.0876 5.24485 70.0333 5.20301 69.9701 5.19459C69.0403 4.55222 68.0189 4.2641 66.8946 4.39199C66.4407 4.45339 65.9969 4.57698 65.575 4.75948C65.4102 4.77542 65.2571 4.85406 65.1458 4.97998C65.136 4.987 65.1264 4.99429 65.1166 5.0016C65.0979 5.01569 65.079 5.02987 65.0593 5.04245C62.8034 6.49992 62.2062 9.47734 63.7332 11.7183C64.258 12.5006 65.0146 13.0879 65.8904 13.3926C65.9657 13.4546 66.0555 13.4767 66.1452 13.4988C66.1926 13.5104 66.24 13.5221 66.2852 13.5396C66.3307 13.5792 66.3879 13.602 66.4476 13.6043C67.0128 13.724 67.5947 13.7357 68.1641 13.6388C68.1826 13.6355 68.2011 13.6323 68.2197 13.629C68.4786 13.5835 68.7405 13.5375 68.9688 13.3852C69.7716 13.0708 70.4756 12.5371 71.0051 11.8418C71.0667 11.8248 71.0933 11.776 71.1199 11.7271C71.1312 11.7062 71.1426 11.6853 71.1567 11.6669C71.2175 11.6228 71.2551 11.5522 71.2583 11.4758Z" fill="#1DC439"/>
<path fill-rule="evenodd" clip-rule="evenodd" d="M38.3972 1.08675C39.1363 1.08234 39.8753 1.08234 40.6144 1.08675C41.0679 1.08969 41.2524 1.28446 41.2474 1.74603V16.3163C41.2467 16.7419 41.05 16.944 40.6309 16.944H38.3779C37.9702 16.9433 37.7492 16.7147 37.7492 16.2958C37.7494 16.2626 37.7473 16.2291 37.7452 16.1955C37.7393 16.1017 37.7333 16.0071 37.7771 15.9172C37.9202 15.7579 38.03 15.57 38.0996 15.3653C38.2505 15.1029 38.4 14.8464 38.5524 14.5884C38.62 14.4742 38.5839 14.3796 38.5437 14.2739C38.5252 14.2253 38.5058 14.1743 38.4952 14.118C37.8908 14.9353 37.212 15.621 36.3888 16.1429C36.228 16.1923 36.0809 16.2802 35.9596 16.3994C34.8304 17.0341 33.5504 17.3303 32.2654 17.2542C31.4627 17.2106 30.6707 17.0451 29.9151 16.7632L29.1999 16.431C29.1289 16.341 29.0222 16.2889 28.9095 16.2891C28.3845 16.0164 27.8956 15.6758 27.4547 15.2756C26.932 14.8222 26.4711 14.2986 26.0843 13.7189C26.0733 13.6262 26.0203 13.5444 25.9412 13.4984C25.415 12.6825 25.0392 11.7742 24.8326 10.8187C24.5179 9.39292 24.5814 7.90653 25.0164 6.5146C25.0737 6.41289 25.1107 6.30045 25.1251 6.18386C25.3823 5.49225 25.7222 4.83625 26.1372 4.231C26.1517 4.20922 26.1673 4.18902 26.183 4.16861C26.1858 4.16492 26.1887 4.16122 26.1915 4.15751C26.2567 4.14063 26.3016 4.07948 26.2995 4.01051C28.3187 1.48731 30.8864 0.414236 34.0406 0.933135C34.9976 1.09042 35.8559 1.51818 36.6598 2.08338C37.3489 2.57798 37.9612 3.17692 38.4759 3.85984C38.6303 3.66286 38.6332 3.57907 38.5138 3.37842C38.4795 3.32102 38.4451 3.26361 38.4107 3.20616C38.2055 2.86343 37.9996 2.51947 37.8042 2.17011C37.675 1.94984 37.6709 1.67515 37.7936 1.45094C37.9163 1.22673 38.1468 1.08763 38.3972 1.08675ZM30.1219 12.8546C32.372 14.4443 35.5284 13.5969 36.7314 11.0759C37.1749 10.141 37.3229 9.15834 37.1119 8.1279C37.1158 7.9738 37.0792 7.82149 37.0061 7.68691L36.863 7.2834C36.8624 7.18601 36.8232 7.09309 36.7543 7.02616C36.7532 7.02067 36.7522 7.01518 36.7511 7.00969C36.734 6.9196 36.7171 6.831 36.6113 6.80052L36.6041 6.73584C36.6086 6.67702 36.581 6.62048 36.5326 6.58884C36.5062 6.51241 36.4575 6.4462 36.3931 6.39922C36.295 6.22466 36.1747 6.06426 36.0355 5.92221C34.7516 4.54632 33.2124 4.03772 31.4093 4.5522C30.0904 4.92925 29.1641 5.81344 28.5626 7.06732C28.4457 7.22853 28.3718 7.41827 28.3481 7.61782C28.3307 7.70542 28.3114 7.79259 28.292 7.87978C28.2498 8.06983 28.2075 8.25998 28.1864 8.45496C28.0755 9.49056 28.2544 10.4644 28.7722 11.3662C28.7813 11.4408 28.8215 11.5076 28.8823 11.5492C29.2044 12.0668 29.6263 12.511 30.1219 12.8546Z" fill="#1DC439"/>
</svg>
