<svg width="107" height="106" viewBox="0 0 107 106" fill="none" xmlns="http://www.w3.org/2000/svg">
<path d="M48.8273 19.2563C50.0161 14.357 56.9839 14.357 58.1727 19.2563C59.0697 22.9526 63.7002 24.1934 66.3252 21.4407C69.8044 17.7923 75.8386 21.2761 74.4185 26.1134C73.3472 29.763 76.737 33.1528 80.3866 32.0814C85.2239 30.6614 88.7077 36.6956 85.0593 40.1748C82.3066 42.7998 83.5474 47.4303 87.2437 48.3273C92.143 49.5161 92.143 56.4839 87.2437 57.6727C83.5474 58.5697 82.3066 63.2002 85.0593 65.8252C88.7077 69.3044 85.2239 75.3386 80.3866 73.9185C76.737 72.8472 73.3472 76.237 74.4185 79.8866C75.8386 84.7239 69.8044 88.2077 66.3252 84.5593C63.7002 81.8066 59.0697 83.0474 58.1727 86.7437C56.9839 91.643 50.0161 91.643 48.8273 86.7437C47.9303 83.0474 43.2998 81.8066 40.6748 84.5593C37.1956 88.2077 31.1614 84.7239 32.5814 79.8866C33.6528 76.237 30.263 72.8472 26.6134 73.9185C21.7761 75.3386 18.2923 69.3044 21.9407 65.8252C24.6934 63.2002 23.4526 58.5697 19.7563 57.6727C14.857 56.4839 14.857 49.5161 19.7563 48.3273C23.4526 47.4303 24.6934 42.7998 21.9407 40.1748C18.2923 36.6956 21.7761 30.6614 26.6134 32.0814C30.263 33.1528 33.6528 29.763 32.5814 26.1134C31.1614 21.2761 37.1956 17.7923 40.6748 21.4407C43.2998 24.1934 47.9303 22.9526 48.8273 19.2563Z" fill="#00A651"/>
<path fill-rule="evenodd" clip-rule="evenodd" d="M51.3428 57.206L64.328 43.8957L67.18 46.678L52.7863 61.4321C52.4144 61.8133 51.9053 62.0298 51.3727 62.0331C50.84 62.0364 50.3283 61.8262 49.9516 61.4496L41.0879 52.5859L43.9053 49.7685L51.3428 57.206Z" fill="white"/>
</svg>
